<?xml version="1.0" encoding="utf-8"?>
<!DOCTYPE svg PUBLIC "-//W3C//DTD SVG 1.1//EN" "http://www.w3.org/Graphics/SVG/1.1/DTD/svg11.dtd">
<svg version="1.1" xmlns="http://www.w3.org/2000/svg" width="610px" height="610px" viewBox="0 0 610 610" preserveAspectRatio="xMidYMid meet">
 <g fill="#144346">
  <path d="M122.7 598.7 c-2.7 -1.9 -3.3 -7.8 -1 -10.6 1.8 -2.2 2.8 -2.4 15.5 -2.9 l13.7 -0.5 -2.9 -3.6 c-1.6 -2 -4.2 -6.3 -5.7 -9.6 l-2.8 -6 -0.3 -147.1 -0.2 -147.1 -3.8 -0.7 c-2 -0.3 -5.3 -0.6 -7.3 -0.6 -10.9 0 -30.6 -5.4 -43.4 -11.8 -29.8 -14.8 -54.4 -45.2 -62.6 -77.2 -4.2 -16.1 -4.3 -38.4 -0.4 -57.1 5.5 -26.8 21 -52.2 44.9 -73.7 17.1 -15.5 41.4 -27.8 67.6 -34.3 8.3 -2 11.9 -2.3 29.5 -2.4 22.6 0 30.1 1.2 46.5 7.2 17.7 6.5 31.3 15 45.7 28.6 11.3 10.8 20.1 22.8 27.3 37.2 12.8 25.7 16.5 44.4 15.7 78 -0.6 22.9 -2.7 36.7 -8.2 53.3 -3.4 10.2 -4.3 12.3 -13.6 32.2 -5.3 11.5 -8.9 21.3 -8.9 24.2 0 1.7 1.7 1.8 37 1.8 35.3 0 37 -0.1 37 -1.8 0 -2.9 -3.6 -12.7 -8.9 -24.2 -9.3 -19.9 -10.2 -22 -13.6 -32.2 -5.5 -16.6 -7.6 -30.4 -8.2 -53.3 -0.8 -33.6 2.9 -52.3 15.7 -78 15.3 -30.8 41.1 -54.1 73 -65.8 16.4 -6 23.9 -7.2 46.5 -7.2 17.6 0.1 21.2 0.4 29.5 2.4 11.5 2.9 27.7 8.8 37.4 13.7 37.7 19.1 67.3 56.2 75.1 94.3 3.9 18.7 3.8 41 -0.4 57.1 -8.2 32 -32.8 62.4 -62.6 77.2 -12.8 6.4 -32.5 11.8 -43.4 11.8 -2 0 -5.3 0.3 -7.3 0.6 l-3.8 0.7 -0.2 147.1 -0.3 147.1 -2.8 6 c-1.5 3.3 -4.1 7.6 -5.7 9.6 l-2.9 3.6 13.7 0.5 c12.7 0.5 13.7 0.7 15.5 2.9 2.3 2.8 1.7 8.7 -1 10.6 -2.5 1.9 -362.1 1.9 -364.6 0z m231.6 -13.3 c0.3 -0.4 -1 -2.6 -2.9 -5 -2 -2.3 -4.4 -6.6 -5.5 -9.4 -1.8 -4.8 -1.9 -8.5 -1.9 -89.9 0 -66.7 -0.3 -85.1 -1.2 -85.8 -1.6 -1.2 -73.7 -1.2 -75.5 0 -1 0.6 -1.3 18.9 -1.3 85.7 0 81.5 -0.1 85.2 -1.9 90 -1.1 2.8 -3.5 7.1 -5.5 9.4 -1.9 2.4 -3.2 4.6 -2.9 5 0.8 0.8 97.8 0.8 98.6 0z"/>
 </g>
 <g fill="#81a2aa">
  <path d="M175.5 583.1 c-8.2 -1.4 -15 -7.7 -18.6 -17.2 -3.1 -8 -3.2 -7.9 8 -7.9 l9.9 0 0.4 5.5 c0.6 6.6 3.2 10 8.6 10.9 2 0.3 11.7 0.3 21.4 -0.1 21.4 -0.7 21.8 -1 21.8 -10.3 l0 -6 12.6 0 12.6 0 -0.7 3.3 c-1.7 7.8 -7.2 15.3 -14.4 19.5 l-4.6 2.7 -26.5 0.2 c-14.6 0 -28.3 -0.2 -30.5 -0.6z"/>
  <path d="M377 582.5 c-8.5 -2.7 -16.4 -11.8 -18.5 -21.2 l-0.7 -3.3 12.6 0 12.6 0 0 6 c0 9.3 0.4 9.6 21.8 10.3 9.7 0.4 19.4 0.4 21.5 0 6.3 -1 9.4 -6 8.7 -14 -0.1 -2.2 0.1 -2.3 9.9 -2.3 5.6 0 10.1 0.4 10.1 0.8 0 0.5 -0.7 3.1 -1.5 5.9 -2.1 6.9 -7.4 13.6 -13.2 16.4 -4.6 2.3 -5.7 2.4 -31.8 2.6 -21.2 0.2 -28 -0.1 -31.5 -1.2z"/>
  <path d="M357.4 483.3 c0.3 -38.4 0.6 -74.4 0.6 -79.9 l0 -10.1 7.8 -1.3 c17.8 -2.8 41.3 -10 54.1 -16.5 11.8 -5.9 21.3 -18.8 22.7 -30.7 0.7 -5.9 -0.7 -14.1 -3.3 -19.2 -2.5 -4.8 -9.4 -11.6 -14.8 -14.4 -4.4 -2.4 -6.1 -2.7 -14 -2.6 -8 0.1 -10.3 0.6 -20.4 4.3 -11.8 4.3 -30.6 8.9 -31.8 7.7 -0.4 -0.4 -1 -11.8 -1.4 -25.4 -0.7 -28.2 0.1 -24.5 -13.3 -58 -12.3 -30.5 -16.6 -50.9 -16.6 -78.5 0.1 -22.7 3.2 -39.6 10.6 -56.9 9.3 -21.7 25.2 -41.2 43.7 -53.5 9.3 -6.2 26.1 -13.5 37.2 -16.3 12.5 -3.1 35.5 -3.9 47.8 -1.6 45 8.5 83.9 38.9 100.4 78.6 6.6 16 9.8 40.3 7.4 57.1 -4.7 32.7 -26.8 63.2 -56.6 78.1 -12.7 6.4 -31.3 10.8 -45.5 10.8 -14.2 0 -34.1 -4.7 -47.4 -11.1 -3.3 -1.6 -6.1 -2.8 -6.2 -2.6 -0.5 0.5 8.5 7 13.6 9.9 3.9 2.3 9.3 4.2 20.5 7.6 l3 0.9 0.2 100.9 c0.2 55.5 0 121.5 -0.3 146.7 l-0.6 45.7 -49 0 -49 0 0.6 -69.7z m15.4 -203.6 c0.4 -2.1 -2.5 -3.4 -4 -1.9 -0.8 0.8 -0.8 1.6 0.2 2.7 1.6 1.9 3.4 1.5 3.8 -0.8z m164.6 -93.4 c2.4 -1.7 5.1 -5 6.8 -8.2 l2.8 -5.3 0 -28 c0 -25.7 -0.2 -28.2 -2 -31.7 -3.7 -7.4 -12.9 -13.1 -21.1 -13.1 -8 0 -18.7 8 -20.8 15.5 -0.7 2.4 -1.1 14.3 -1.1 30.1 0 29.1 0.5 32.2 6.3 38.2 8.4 8.8 18.9 9.7 29.1 2.5z m-116.6 -20.9 c4.3 -1.8 8.8 -5.8 10.8 -9.6 2.6 -5 1.2 -11.4 -2.6 -11.8 -3.7 -0.5 -5.1 0.3 -7 4 -2.6 5 -4.8 6.2 -11.2 5.8 -4.9 -0.3 -5.4 -0.6 -8.1 -4.6 -3.8 -5.6 -6.1 -6.8 -9.3 -4.8 -3.2 2.2 -3.9 5.5 -1.9 10.2 2.1 5.1 5.1 8.3 10 10.5 5 2.3 14.2 2.5 19.3 0.3z m-47.4 -18.8 c4.9 -2.1 8.8 -7.7 9.4 -13.6 0.8 -8.6 -3.6 -14.8 -12 -17.1 -3.3 -0.9 -4.9 -0.8 -8.4 0.6 -13.9 5.3 -14.5 23.5 -1 29.6 4.9 2.2 7.6 2.3 12 0.5z m92.7 -1.5 c13.9 -8.8 8.2 -29 -8.1 -29.1 -5.8 0 -10.3 2.8 -13 7.9 -3.6 7.1 -2.3 13.7 3.7 19.2 6.2 5.8 10.7 6.3 17.4 2z"/>
 </g>
 <g fill="#167525">
  <path d="M175.5 583 c-8.1 -1.2 -15 -7.5 -18.6 -17.1 -3 -7.7 -2.9 -7.9 4.9 -7.9 l6.9 0 0.1 4.8 c0.1 2.6 0.7 5.9 1.3 7.5 0.8 2 0.8 3.1 0 4 -1.5 1.9 2.5 5.5 7.9 7.1 5 1.5 3.4 2.5 -2.5 1.6z"/>
  <path d="M184 583 c0 -0.6 7.9 -1 21.6 -1 14.1 0 21.3 0.3 20.9 1 -0.4 0.6 -8.7 1 -21.6 1 -13.3 0 -20.9 -0.4 -20.9 -1z"/>
  <path d="M229 582 c0.5 -1 2.1 -2.7 3.5 -3.8 2.9 -2.3 2.6 -2.7 -3.2 -3.7 -3.7 -0.6 -7.1 -2.5 -4.5 -2.5 1.3 0 2.9 -4.1 3.7 -9.4 l0.7 -4.6 11.5 0 11.5 0 -0.7 3.3 c-2.2 9.9 -9.7 18.3 -18.8 21.1 -4.4 1.3 -4.6 1.3 -3.7 -0.4z"/>
  <path d="M382.5 583 c-0.4 -0.7 6.8 -1 20.9 -1 13.7 0 21.6 0.4 21.6 1 0 0.6 -7.6 1 -20.9 1 -12.9 0 -21.2 -0.4 -21.6 -1z"/>
  <path d="M429.5 583.1 c-0.2 -0.4 1 -1.3 2.8 -1.9 4.1 -1.6 7.6 -6 5.6 -7.2 -1 -0.7 -1 -1.4 -0.1 -3.5 0.7 -1.4 1.2 -4.8 1.2 -7.5 l0 -5 8.1 0 8.1 0 -0.7 3.3 c-1.7 7.9 -6.4 15.2 -12 18.7 -3.5 2.1 -12.2 4.2 -13 3.1z"/>
  <path d="M373.5 580.9 c-7.6 -4 -13.1 -11.3 -15 -19.6 l-0.7 -3.3 10.6 0 10.6 0 0 2.5 c0 1.4 0.7 2.8 1.5 3.1 0.8 0.4 1.5 1.6 1.5 2.8 0 1.2 0.9 3.2 2 4.4 2.1 2.2 2.1 2.2 0.1 2.2 -1.1 0 -2.3 0.5 -2.6 1 -0.3 0.6 -2.2 1 -4.1 1 -3.2 0 -3.4 0.2 -2.4 2 0.6 1.2 2.2 2.6 3.6 3.2 1.3 0.6 2.4 1.5 2.4 2 0 1.4 -3.4 0.9 -7.5 -1.3z"/>
  <path d="M191.3 575.3 c5.4 -0.2 13.9 -0.2 19 0 5.1 0.1 0.7 0.3 -9.8 0.3 -10.4 0 -14.6 -0.2 -9.2 -0.3z"/>
  <path d="M400.3 575.3 c5.4 -0.2 13.9 -0.2 19 0 5.1 0.1 0.7 0.3 -9.8 0.3 -10.4 0 -14.6 -0.2 -9.2 -0.3z"/>
  <path d="M154.8 530.3 c-0.2 -12.6 -0.3 -78.5 -0.3 -146.7 l0 -123.8 10.4 -3.4 c5.7 -1.9 12 -4.4 14 -5.6 5.3 -3.2 13.1 -9.1 12.7 -9.6 -0.2 -0.2 -3 1 -6.2 2.6 -15 7.6 -35.2 11.7 -52.4 10.8 -38.8 -1.9 -73.4 -25.9 -89.2 -61.6 -6.7 -15.2 -8.2 -22.4 -8.2 -40 -0.1 -12.7 0.3 -17.4 2.2 -25.8 8.5 -38 37.6 -71.5 76.3 -87.8 16.1 -6.8 27.8 -9.5 43.5 -10.1 21.7 -0.9 37.8 2.1 55 10.2 23 10.7 40.3 26.7 53.3 49.3 12 20.7 17.1 41.8 17.1 70.4 0 27.1 -4.3 47.4 -16.7 78.3 -13.5 33.7 -12.5 29.5 -13.2 57.7 -0.4 13.6 -1 25 -1.4 25.4 -1.2 1.3 -17.9 -2.8 -30.7 -7.4 -11.1 -4 -13.5 -4.5 -21.5 -4.6 -7.9 -0.1 -9.6 0.2 -14 2.6 -5.4 2.8 -12.3 9.6 -14.8 14.4 -4.5 9 -4.5 20.6 0 30.3 3.3 6.9 12.1 16 19 19.5 13.2 6.7 36.5 13.8 54.6 16.6 l7.7 1.3 0 13.1 c0 7.2 0.3 43.1 0.7 79.9 l0.6 66.7 -49.1 0 -49.1 0 -0.3 -22.7z m86.1 -249.2 c1.7 -1.1 0.7 -4.1 -1.3 -4.1 -1.9 0 -2.9 1.7 -2.2 3.5 0.6 1.7 1.5 1.8 3.5 0.6z m-145.4 -92.3 c4.6 -2.5 9.2 -7.8 11 -12.7 1.2 -3.5 1.5 -9.5 1.5 -30.5 0 -15.7 -0.4 -27.7 -1.1 -30.1 -2.1 -7.7 -12.9 -15.5 -21.4 -15.5 -7.8 0 -16.8 5.7 -20.5 13.1 -1.8 3.5 -2 6 -2 31.7 l0 27.8 2.6 5.2 c5.7 11.6 19.3 16.5 29.9 11z m115.7 -25.3 c5.1 -3.6 9.4 -11.2 8.4 -15 -0.4 -1.4 -1.7 -3.2 -3.1 -4.1 -2.3 -1.5 -2.7 -1.5 -5 0 -1.3 0.9 -3.1 3 -4 4.6 -2 3.9 -4.3 5 -10.3 5 -5.3 0 -6.7 -1 -9.5 -6.6 -1.8 -3.5 -4.5 -4.7 -7.3 -3.1 -2.6 1.4 -3.4 2.7 -3.4 6 0 5.7 5.8 12.7 12.6 15.3 2.4 0.8 6.6 1.3 10.6 1.1 5.5 -0.2 7.5 -0.8 11 -3.2z m-54.4 -16.9 c3.1 -1.6 7.4 -6.1 9.1 -9.3 2.9 -5.7 -0.3 -15.8 -6.2 -19.3 -6.9 -4.3 -18 -1.2 -21.9 6 -2.5 4.6 -2 12.5 1.1 16.9 4.3 6 12.3 8.6 17.9 5.7z m91 -0.2 c5.6 -2.3 8.9 -6 10.2 -11.4 1 -4.2 0.9 -5.4 -0.8 -9.3 -5.4 -12.1 -20.7 -13.5 -28 -2.6 -5.1 7.5 -0.7 20.6 7.9 23.6 4.6 1.6 6.3 1.6 10.7 -0.3z"/>
  <path d="M357.4 483.3 c0.3 -38.4 0.6 -74.4 0.6 -79.9 l0 -10.1 7.8 -1.3 c17.8 -2.8 41.3 -10 54.1 -16.5 11.8 -5.9 21.3 -18.8 22.7 -30.7 0.7 -5.9 -0.7 -14.1 -3.3 -19.2 -2.5 -4.8 -9.4 -11.6 -14.8 -14.4 -4.4 -2.4 -6.1 -2.7 -14 -2.6 -8 0.1 -10.3 0.6 -20.4 4.3 -11.8 4.3 -30.6 8.9 -31.8 7.7 -0.4 -0.4 -1 -11.8 -1.4 -25.4 -0.7 -28.2 0.1 -24.5 -13.3 -58 -12.3 -30.5 -16.6 -50.9 -16.6 -78.5 0.1 -22.7 3.2 -39.6 10.6 -56.9 9.3 -21.7 25.2 -41.2 43.7 -53.5 9.3 -6.2 26.1 -13.5 37.2 -16.3 12.5 -3.1 35.5 -3.9 47.8 -1.6 45 8.5 83.9 38.9 100.4 78.6 6.6 16 9.8 40.3 7.4 57.1 -4.7 32.7 -26.8 63.2 -56.6 78.1 -12.7 6.4 -31.3 10.8 -45.5 10.8 -15 0 -35.1 -4.9 -48.5 -11.9 -9.3 -4.8 -9.5 -4.8 -6 -1.9 10 8.3 19.3 13.2 32 16.7 l6 1.6 0.2 101 c0.2 55.6 0 121.6 -0.3 146.8 l-0.6 45.7 -49 0 -49 0 0.6 -69.7z m15.4 -203.6 c0.4 -2.1 -2.5 -3.4 -4 -1.9 -0.8 0.8 -0.8 1.6 0.2 2.7 1.6 1.9 3.4 1.5 3.8 -0.8z m164.6 -93.4 c2.4 -1.7 5.1 -5 6.8 -8.2 l2.8 -5.3 0 -28 c0 -25.7 -0.2 -28.2 -2 -31.7 -3.7 -7.4 -12.9 -13.1 -21.1 -13.1 -8 0 -18.7 8 -20.8 15.5 -0.7 2.4 -1.1 14.3 -1.1 30.1 0 29.1 0.5 32.2 6.3 38.2 8.4 8.8 18.9 9.7 29.1 2.5z m-116.6 -20.9 c4.3 -1.8 8.8 -5.8 10.8 -9.6 2.6 -5 1.2 -11.4 -2.6 -11.8 -3.7 -0.5 -5.1 0.3 -7 4 -2.6 5 -4.8 6.2 -11.2 5.8 -4.9 -0.3 -5.4 -0.6 -8.1 -4.6 -3.8 -5.6 -6.1 -6.8 -9.3 -4.8 -3.2 2.2 -3.9 5.5 -1.9 10.2 2.1 5.1 5.1 8.3 10 10.5 5 2.3 14.2 2.5 19.3 0.3z m-47.4 -18.8 c4.9 -2.1 8.8 -7.7 9.4 -13.6 0.8 -8.6 -3.6 -14.8 -12 -17.1 -3.3 -0.9 -4.9 -0.8 -8.4 0.6 -13.9 5.3 -14.5 23.5 -1 29.6 4.9 2.2 7.6 2.3 12 0.5z m92.7 -1.5 c13.9 -8.8 8.2 -29 -8.1 -29.1 -5.8 0 -10.3 2.8 -13 7.9 -3.6 7.1 -2.3 13.7 3.7 19.2 6.2 5.8 10.7 6.3 17.4 2z"/>
  <path d="M280.8 379.9 c-35.9 -2 -76.4 -12.6 -88.2 -22.9 -10 -8.8 -10.1 -23 -0.2 -29.8 4.5 -3 8.5 -2.8 20.7 1.3 28.1 9.5 55.1 13.5 91.9 13.5 36.8 0 61.9 -3.6 90.9 -13.2 16.7 -5.5 21.9 -4.6 27 4.3 6 10.5 -0.5 23.3 -14.8 29.6 -31.7 14.1 -76.5 20.1 -127.3 17.2z"/>
  <path d="M272.8 324.3 l-4.8 -0.4 0 -16 0 -15.9 37 0 37 0 0 15.9 0 15.8 -6.7 0.6 c-7 0.7 -54 0.6 -62.5 0z"/>
 </g>
 <g fill="#28cd41">
  <path d="M160.7 573.2 c-1.9 -2.1 -5.7 -11.2 -5.7 -13.7 0 -1.1 1.2 -1.5 5.1 -1.5 2.7 0 4.8 0.4 4.5 0.9 -0.6 0.8 0.5 7.1 1.9 11.9 0.6 1.8 0.3 2.2 -1.3 2.2 -1.1 0 -2.2 0.5 -2.4 1.1 -0.2 0.6 -1.1 0.2 -2.1 -0.9z"/>
  <path d="M234.3 572.9 c0.4 -1.3 0.7 -5.2 0.7 -8.6 l0 -6.3 8.6 0 8.6 0 -0.7 3.3 c-0.8 3.7 -3 8.3 -5.4 11.2 -1.2 1.4 -3.1 2.1 -7 2.4 -5.2 0.3 -5.4 0.2 -4.8 -2z"/>
  <path d="M364.2 573.4 c-1.7 -1.9 -4.9 -8.7 -5.7 -12.1 l-0.7 -3.3 7.2 0 c4.8 0 7.2 0.4 7.5 1.3 0.2 0.6 0.5 4.5 0.8 8.4 l0.4 7.3 -4.2 -0.3 c-2.3 -0.1 -4.7 -0.7 -5.3 -1.3z"/>
  <path d="M444.2 573.6 c-2.7 -0.9 -3.2 -1.4 -2.7 -3.1 1.7 -5.5 2.5 -10 2.1 -11.2 -0.4 -1 0.9 -1.3 5.5 -1.3 l6.1 0 -0.7 3.3 c-1 4.5 -3.9 11 -5.6 12.2 -1 0.7 -2.4 0.8 -4.7 0.1z"/>
  <path d="M189 563.2 c-3 -0.5 -5 -2 -5 -3.8 0 -1.1 3 -1.4 15.5 -1.4 12.5 0 15.5 0.3 15.5 1.4 0 0.7 -0.6 1.8 -1.2 2.3 -1.3 1.1 -20.4 2.2 -24.8 1.5z"/>
  <path d="M405.5 563.3 c-7.9 -0.4 -10.5 -1.3 -10.5 -3.9 0 -1.1 3 -1.4 15.4 -1.4 8.5 0 15.7 0.4 16 0.9 1.1 1.7 -3 3.9 -7.9 4.3 -2.7 0.3 -8.6 0.3 -13 0.1z"/>
  <path d="M154.7 530.1 c-0.5 -36.2 -0.1 -244 0.5 -244.6 0.3 -0.3 1.4 1.3 2.4 3.7 1.8 4.1 1.9 9.7 2.2 133.4 l0.3 129.2 -2.5 0.4 -2.5 0.5 -0.4 -22.6z"/>
  <path d="M177.5 552 c-0.7 -1.1 -0.7 -168.1 0 -168.8 0.2 -0.2 3.5 2.3 7.4 5.5 3.9 3.3 11.9 8.4 17.8 11.5 12.3 6.3 34.2 13.8 40.3 13.8 l4.1 0 -0.3 -10.5 -0.3 -10.5 2.8 0 2.7 0 0 13.3 c0 7.2 0.3 43.2 0.7 80 l0.6 66.7 -37.6 0 c-23.4 0 -37.8 -0.4 -38.2 -1z"/>
  <path d="M357.4 489.8 c0.3 -34.8 0.6 -70.8 0.6 -80 0 -15.3 0.2 -16.8 1.8 -16.8 1.5 0 1.7 1 1.4 10.5 l-0.3 10.5 4.4 0 c6.1 0 29 -7.9 40.4 -14 12.6 -6.8 12.9 -6.9 18.7 -12.2 2.8 -2.6 5.4 -4.8 5.9 -4.8 0.4 0 0.8 37 0.8 82.3 0.1 45.2 0.3 83.4 0.5 85 l0.3 2.7 -37.6 0 -37.5 0 0.6 -63.2z"/>
  <path d="M451.2 552.2 l-3.3 -0.3 0.3 -129.2 c0.3 -123.4 0.4 -129.4 2.2 -133.4 1 -2.4 2.4 -4.3 3.1 -4.3 0.8 0 1.5 -0.8 1.7 -1.7 0.6 -3.4 0.6 212.3 0 240.7 l-0.7 28.5 -3.3 -0.3z"/>
  <path d="M280.3 379.9 c-15 -0.9 -36 -3.9 -45.3 -6.5 -27.2 -7.8 -36.7 -11.5 -42.4 -16.4 -10 -8.8 -10.1 -23 -0.2 -29.8 4.5 -3 8.5 -2.8 20.7 1.3 28.1 9.5 55.1 13.5 91.9 13.5 36.8 0 61.9 -3.6 90.9 -13.2 13.3 -4.4 17.8 -4.6 22.5 -1.2 6.3 4.8 8.5 14.8 4.6 22.3 -4.2 8.4 -15.2 14.3 -39 21 -19.9 5.5 -33.4 7.7 -56.5 9.1 -18.9 1.1 -26.4 1.1 -47.2 -0.1z m76.2 -6.8 c25.2 -4.6 50.7 -13.2 58.4 -19.7 3.3 -2.7 5.9 -9 4.4 -10.5 -0.6 -0.6 -4.9 1 -11.2 4.1 -11.5 5.6 -31.8 12.1 -47.1 15 -15.1 2.9 -30.9 4 -57 4 -26.1 0 -41.9 -1.1 -57 -4 -15 -2.9 -36.1 -9.5 -46.1 -14.6 -8.7 -4.3 -12.9 -5.4 -12.9 -3.4 0 2.8 3.2 8 6.3 10.4 4 3 26.3 11.7 37.5 14.5 8.3 2.1 28.9 5.8 36.2 6.4 2.5 0.2 20.7 0.3 40.5 0.2 32 -0.2 37.3 -0.5 48 -2.4z"/>
  <path d="M292 324 c0 -0.5 0.7 -1 1.5 -1 0.8 0 1.5 0.5 1.5 1 0 0.6 -0.7 1 -1.5 1 -0.8 0 -1.5 -0.4 -1.5 -1z"/>
  <path d="M301 324 c0 -0.5 1.4 -1 3 -1 1.7 0 3 0.5 3 1 0 0.6 -1.3 1 -3 1 -1.6 0 -3 -0.4 -3 -1z"/>
  <path d="M311 324 c0 -0.5 1.1 -1 2.5 -1 1.4 0 2.5 0.5 2.5 1 0 0.6 -1.1 1 -2.5 1 -1.4 0 -2.5 -0.4 -2.5 -1z"/>
  <path d="M239.4 319 c-4.4 -1.1 -13.2 -3.8 -19.5 -6.1 -10.1 -3.7 -12.4 -4.2 -20.4 -4.3 -7.6 -0.1 -9.7 0.3 -13.5 2.3 -2.5 1.3 -5.2 3 -6.1 3.7 -2 1.8 -5.1 0.7 -4.5 -1.5 0.2 -0.9 0.7 -3.4 1.1 -5.6 3.2 -19.3 16.2 -49.2 29.9 -69 2.3 -3.3 5.2 -8 6.4 -10.5 1.2 -2.5 3.1 -6 4.2 -7.9 1 -1.9 1.7 -3.8 1.4 -4.3 -1 -1.6 -7.1 -0.7 -15.9 2.3 -4.9 1.7 -10.3 3.3 -12 3.5 -6.4 0.8 -7 0.9 -7.7 1.9 -1.2 1.7 -44.2 1 -51.3 -0.8 -3.3 -0.8 -9 -1.8 -12.7 -2.2 -4 -0.4 -7.6 -1.4 -9 -2.4 -1.3 -1 -4.8 -2.4 -7.8 -3.1 -3 -0.8 -6.8 -2 -8.3 -2.8 -5.5 -2.6 -17.3 -11 -22.4 -15.9 -4.9 -4.8 -24.3 -32.8 -24.3 -35.2 0 -0.6 -0.4 -1.1 -1 -1.1 -0.5 0 -1 -0.6 -1 -1.4 0 -0.7 -1.6 -2.6 -3.5 -4 l-3.5 -2.7 0 6.3 c0.1 17.2 11.3 41.6 26.8 58 14.9 15.7 33.6 26.4 53.4 30.4 11 2.2 39 1.4 53.2 -1.5 5.5 -1.1 10.2 -1.8 10.5 -1.6 2 2.1 -12.9 7.5 -28.3 10.1 -17.7 3.1 -40.1 0.2 -57.1 -7.5 -10.7 -4.9 -22.5 -13.2 -31.2 -22 -26 -26.4 -35.4 -60 -27.3 -97.5 8.1 -37.1 37.6 -71 76.1 -87.2 16.1 -6.8 27.8 -9.5 43.5 -10.1 21.7 -0.9 37.8 2.1 55 10.2 23 10.7 40.3 26.7 53.3 49.3 12 20.7 17.1 41.8 17.1 70.4 0 27.1 -4.3 47.4 -16.7 78.3 -13.4 33.7 -12.5 29.5 -13.3 58 -0.5 13.8 -0.9 25.1 -0.9 25.3 -0.2 0.6 -5.3 -0.1 -12.7 -1.8z m1.5 -37.9 c1.7 -1.1 0.7 -4.1 -1.3 -4.1 -1.9 0 -2.9 1.7 -2.2 3.5 0.6 1.7 1.5 1.8 3.5 0.6z m-145.4 -92.3 c4.6 -2.5 9.2 -7.8 11 -12.7 1.2 -3.5 1.5 -9.5 1.5 -30.5 0 -15.7 -0.4 -27.7 -1.1 -30.1 -2.1 -7.7 -12.9 -15.5 -21.4 -15.5 -7.8 0 -16.8 5.7 -20.5 13.1 -1.8 3.5 -2 6 -2 31.7 l0 27.8 2.6 5.2 c5.7 11.6 19.3 16.5 29.9 11z m115.7 -25.3 c5.1 -3.6 9.4 -11.2 8.4 -15 -0.4 -1.4 -1.7 -3.2 -3.1 -4.1 -2.3 -1.5 -2.7 -1.5 -5 0 -1.3 0.9 -3.1 3 -4 4.6 -2 3.9 -4.3 5 -10.3 5 -5.3 0 -6.7 -1 -9.5 -6.6 -1.8 -3.5 -4.5 -4.7 -7.3 -3.1 -2.6 1.4 -3.4 2.7 -3.4 6 0 5.7 5.8 12.7 12.6 15.3 2.4 0.8 6.6 1.3 10.6 1.1 5.5 -0.2 7.5 -0.8 11 -3.2z m-54.4 -16.9 c3.1 -1.6 7.4 -6.1 9.1 -9.3 2.9 -5.7 -0.3 -15.8 -6.2 -19.3 -6.9 -4.3 -18 -1.2 -21.9 6 -2.5 4.6 -2 12.5 1.1 16.9 4.3 6 12.3 8.6 17.9 5.7z m91 -0.2 c5.6 -2.3 8.9 -6 10.2 -11.4 1 -4.2 0.9 -5.4 -0.8 -9.3 -5.4 -12.1 -20.7 -13.5 -28 -2.6 -5.1 7.5 -0.7 20.6 7.9 23.6 4.6 1.6 6.3 1.6 10.7 -0.3z"/>
  <path d="M357.9 320.8 c0 -0.2 -0.4 -11.5 -0.9 -25.3 -0.8 -28.5 0 -24.8 -13.4 -58.3 -12.3 -30.5 -16.6 -50.9 -16.6 -78.5 0.1 -22.7 3.2 -39.6 10.6 -56.9 9.3 -21.7 25.2 -41.2 43.7 -53.5 9.3 -6.2 26.1 -13.5 37.2 -16.3 12.5 -3.1 35.5 -3.9 47.8 -1.6 45 8.5 83.9 38.9 100.4 78.6 6.6 16 9.8 40.3 7.4 57.1 -4.1 28.5 -21 55 -45.6 71.6 -21.3 14.3 -48.1 20.1 -73.1 15.8 -10.7 -1.9 -27.7 -7.5 -28 -9.3 -0.1 -0.7 0 -0.8 0.2 -0.3 0.3 0.6 1.1 0.8 1.7 0.5 0.7 -0.2 6.6 0.5 13.2 1.6 13.4 2.3 35.7 2.8 45.5 1 24 -4.4 47.5 -19.3 62.8 -39.9 7.1 -9.5 14.8 -25.1 17.2 -34.9 2.1 -8.4 2.7 -20.2 0.9 -20.2 -0.5 0 -0.8 0.4 -0.5 0.9 0.3 0.4 -0.6 1.3 -1.9 1.9 -1.4 0.7 -2.5 1.6 -2.5 2.1 0 0.5 -0.6 1.6 -1.4 2.3 -0.7 0.8 -2.1 2.9 -3 4.7 -4.3 8.3 -17.3 26.8 -22.4 31.7 -5.9 5.9 -19.3 15.4 -21.6 15.4 -0.8 0 -1.6 0.5 -1.8 1 -0.2 0.6 -3.2 1.7 -6.8 2.6 -3.6 0.9 -7.5 2.5 -8.8 3.5 -1.3 1 -4.9 2 -8 2.4 -3.1 0.3 -8.8 1.2 -12.7 2 -10.1 2.1 -51.5 2.5 -51.5 0.6 0 -0.5 -1 -0.9 -2.2 -0.9 -5.2 -0.1 -9.9 -1.2 -18.6 -4.2 -9.8 -3.4 -15.9 -3.7 -15.4 -0.9 0.3 1.9 7.8 15.2 14.4 25.4 13.6 21.2 22.8 43.1 27.3 65 0.7 3.3 1.6 6.9 2 8 0.8 1.9 0.7 1.9 -1.1 0.4 -1 -0.9 -4.4 -3 -7.4 -4.5 -4.9 -2.6 -6.4 -2.9 -14.5 -2.8 -7.9 0.1 -10.3 0.6 -20.3 4.3 -12.3 4.5 -31.8 9.2 -32.3 7.9z m14.9 -41.1 c0.4 -2.1 -2.5 -3.4 -4 -1.9 -0.8 0.8 -0.8 1.6 0.2 2.7 1.6 1.9 3.4 1.5 3.8 -0.8z m162.8 -92.2 c4.6 -2.7 8.5 -7.4 10.2 -12.4 0.8 -2.3 1.2 -12.5 1.2 -30.8 0 -25.2 -0.2 -27.7 -2 -31.2 -3.7 -7.4 -12.9 -13.1 -21.1 -13.1 -8 0 -18.7 8 -20.8 15.5 -0.7 2.4 -1.1 14.3 -1.1 30.1 0 29.1 0.5 32.2 6.3 38.2 8 8.4 17 9.6 27.3 3.7z m-114.8 -22.1 c4.3 -1.8 8.8 -5.8 10.8 -9.6 2.6 -5 1.2 -11.4 -2.6 -11.8 -3.7 -0.5 -5.1 0.3 -7 4 -2.6 5 -4.8 6.2 -11.2 5.8 -4.9 -0.3 -5.4 -0.6 -8.1 -4.6 -3.8 -5.6 -6.1 -6.8 -9.3 -4.8 -3.2 2.2 -3.9 5.5 -1.9 10.2 2.1 5.1 5.1 8.3 10 10.5 5 2.3 14.2 2.5 19.3 0.3z m-47.4 -18.8 c4.9 -2.1 8.8 -7.7 9.4 -13.6 0.8 -8.6 -3.6 -14.8 -12 -17.1 -3.3 -0.9 -4.9 -0.8 -8.4 0.6 -13.9 5.3 -14.5 23.5 -1 29.6 4.9 2.2 7.6 2.3 12 0.5z m92.7 -1.5 c13.9 -8.8 8.2 -29 -8.1 -29.1 -5.8 0 -10.3 2.8 -13 7.9 -3.6 7.1 -2.3 13.7 3.7 19.2 6.2 5.8 10.7 6.3 17.4 2z"/>
  <path d="M283 311.9 c-16.2 -1.3 -15 -0.4 -15 -10.9 l0 -9 37 0 37 0 0 8.9 0 8.9 -3.3 0.6 c-12.2 2.3 -37.4 2.9 -55.7 1.5z"/>
 </g>
</svg>